<svg width="67" height="26" viewBox="0 0 67 26" fill="none" xmlns="http://www.w3.org/2000/svg">
<circle cx="12.3215" cy="19.6346" r="2.68507" stroke="#A3A4A6"/>
<path d="M28.6307 7.31305V3.10669C28.6307 2.83055 28.4024 2.60642 28.1263 2.60939C19.1926 2.70573 14.888 5.3541 13.4306 7.1488C13.1981 7.43521 13.4242 7.81305 13.7931 7.81305H28.1307C28.4069 7.81305 28.6307 7.5892 28.6307 7.31305Z" stroke="#A3A4A6"/>
<path d="M32.1613 7.31305V3.10669C32.1613 2.83055 32.3877 2.60622 32.6638 2.61122C39.4344 2.73405 43.2576 5.32544 44.7681 7.10923C45.0173 7.40346 44.7914 7.81305 44.4059 7.81305H32.6613C32.3851 7.81305 32.1613 7.5892 32.1613 7.31305Z" stroke="#A3A4A6"/>
<circle cx="56.0551" cy="19.6346" r="5.07387" stroke="#A3A4A6"/>
<circle cx="56.0549" cy="19.6346" r="2.68507" stroke="#A3A4A6"/>
<circle cx="12.3214" cy="19.6346" r="5.07387" stroke="#A3A4A6"/>
<path fill-rule="evenodd" clip-rule="evenodd" d="M33.326 0.146797C28.104 -0.123831 24.9446 0.00553919 22.6872 0.324618C20.8765 0.580558 19.6482 0.959891 18.4418 1.33248C18.1427 1.42483 17.845 1.51677 17.5401 1.60631C15.1004 2.3228 9.69266 4.47236 7.72511 5.60671C7.65288 5.64835 7.58056 5.67281 7.51114 5.68155L1.31268 6.4617C0.562601 6.55611 0 7.19396 0 7.94996V18.9115C0 19.74 0.671572 20.4115 1.5 20.4115H7.84206C7.80706 20.2081 7.78891 19.9997 7.78891 19.7877C7.78891 19.6609 7.7954 19.5354 7.8081 19.4115H1.5C1.22386 19.4115 1 19.1877 1 18.9115V7.94996C1 7.69796 1.18753 7.48534 1.43756 7.45387L7.63602 6.67372C7.85041 6.64674 8.04901 6.57427 8.22458 6.47304C10.1018 5.39075 15.4297 3.26832 17.8219 2.56579C18.145 2.4709 18.4541 2.37554 18.7597 2.28123C19.9572 1.91179 21.1017 1.55867 22.8272 1.31478C24.9952 1.00833 28.0834 0.876442 33.2742 1.14546C40.039 1.49604 46.4203 5.31074 48.945 7.31147C49.1243 7.45355 49.337 7.56015 49.582 7.60463C49.7848 7.64143 50.0817 7.69241 50.4535 7.75625C52.6164 8.12758 57.3143 8.93417 60.7565 9.91763C62.238 10.3409 63.5375 11.7722 64.4498 13.6035C65.3557 15.422 65.8166 17.5127 65.7103 19.0804C65.6992 19.2442 65.5471 19.4115 65.2933 19.4115H60.8789C60.8883 19.5294 60.8933 19.6485 60.8938 19.7687L60.8938 19.7877L60.8938 19.8052C60.893 20.0107 60.8791 20.2131 60.8526 20.4115H65.2933C65.9811 20.4115 66.6554 19.9238 66.708 19.1481C66.8287 17.3684 66.3129 15.1008 65.3449 13.1576C64.3832 11.2271 62.9115 9.49335 61.0312 8.95611C57.5271 7.95495 52.7502 7.13549 50.6044 6.76738C50.2417 6.70516 49.9542 6.65584 49.7607 6.62071C49.6967 6.6091 49.6329 6.58069 49.5661 6.52773C46.9559 4.4592 40.3788 0.512311 33.326 0.146797ZM17.1412 19.4115C17.1539 19.5354 17.1604 19.6609 17.1604 19.7877C17.1604 19.9997 17.1422 20.2081 17.1072 20.4115H17.681H50.5268C50.4967 20.2074 50.4811 19.9992 50.4811 19.7877C50.4811 19.6611 50.4867 19.5356 50.4976 19.4115H17.681H17.1412ZM51.5035 19.4115H51.5372C51.5274 19.5356 51.5224 19.6611 51.5224 19.7877C51.5224 19.9992 51.5364 20.2074 51.5635 20.4115H51.5429C51.5022 20.2072 51.4811 19.9986 51.4811 19.7877C51.4811 19.6613 51.4887 19.5358 51.5035 19.4115Z" fill="#A3A4A6"/>
</svg>
