<svg width="49" height="31" viewBox="0 0 49 31" fill="none" xmlns="http://www.w3.org/2000/svg">
<path fill-rule="evenodd" clip-rule="evenodd" d="M44.3581 15C47.0825 13.8323 49 11.0453 49 7.79292C49 3.48901 45.6421 0 41.5 0C37.3579 0 34 3.48901 34 7.79292C34 11.041 35.9125 13.825 38.6312 14.9954C37.9887 13.8616 37.845 12.2588 38.1623 10.5901C38.862 6.91008 41.502 4.15622 41.502 4.15622C41.502 4.15622 44.148 6.91008 44.8416 10.5901C45.1566 12.261 45.0049 13.8659 44.3581 15Z" fill="#D7D9DF"/>
<path d="M13.143 9.54932H20.4287" stroke="#A3A4A6"/>
<path d="M16.833 22.1709H27.6663" stroke="#A3A4A6"/>
<path d="M31.8333 5H12.782C11.0683 5.19859 10.6398 5.59577 9.99716 6.39014C9.35451 7.1845 8.14061 9.5014 7.64076 10.7591C7.12664 9.8059 6.56967 9.369 5.92702 9.17041C5.07014 8.90562 3.14218 8.97182 1.85687 9.17041C1.22296 9.26836 1 9.76619 1 10.362V12.7451C1.31764 13.4812 1.23052 13.7057 4.9671 13.7347C5.26089 13.7369 5.39325 14.1322 5.17164 14.3251C4.2084 15.1635 3.57062 16.1166 3.57062 16.9155V24.4619C3.49921 25.1901 3.80422 26.5 5.34659 26.5C6.88896 26.5 37.3485 26.5 39.1534 26.5C40.9583 26.5 41 24.3059 41 24.3059C41 24.3059 41 18.5087 41 16.9696" stroke="#A3A4A6"/>
<path d="M7.63678 10.2354C7.35484 11.1636 7.34273 13.2191 10.2186 13.2191C13.0944 13.2191 27.4875 13.2191 34.3245 13.2191" stroke="#A3A4A6"/>
<path d="M6.84082 16.2031C6.97986 16.8662 7.63336 18.1923 9.13502 18.1923C10.6367 18.1923 12.1244 18.1923 12.6806 18.1923" stroke="#A3A4A6"/>
<path d="M37.6807 16.2031C37.5416 16.8662 36.8881 18.1923 35.3865 18.1923C33.8848 18.1923 32.3971 18.1923 31.8409 18.1923" stroke="#A3A4A6"/>
<path d="M5.36328 26.5H13.0565V29C13.0565 29.8284 12.3849 30.5 11.5565 30.5H6.86328C6.03485 30.5 5.36328 29.8284 5.36328 29V26.5Z" stroke="#A3A4A6"/>
<path d="M30.4775 26.5H39.1366V29C39.1366 29.8284 38.4651 30.5 37.6366 30.5H31.9775C31.1491 30.5 30.4775 29.8284 30.4775 29V26.5Z" stroke="#A3A4A6"/>
</svg>
