<svg width="71" height="28" viewBox="0 0 71 28" fill="none" xmlns="http://www.w3.org/2000/svg">
<path fill-rule="evenodd" clip-rule="evenodd" d="M68.1005 13.0932C66.5678 15.2743 65 17 65 17C65 17 59.3169 10.7444 59.0127 7H53L49 9.5C49 9.5 52.7223 9.82562 55 10.5C57.6807 11.2937 61 13.5 61 13.5L60 14.5C63.5 17 63.5 18 63.5 18H71L68.1005 13.0932Z" fill="#D7D9DF"/>
<path fill-rule="evenodd" clip-rule="evenodd" d="M65 15C65 15 70 8.56109 70 5.51515C70 2.46922 67.7614 0 65 0C62.2386 0 60 2.46922 60 5.51515C60 8.56109 65 15 65 15ZM65 7C66.1046 7 67 6.10457 67 5C67 3.89543 66.1046 3 65 3C63.8954 3 63 3.89543 63 5C63 6.10457 63.8954 7 65 7Z" fill="#D7D9DF"/>
<path d="M4.09653 23.1903L3.85896 23.6302L3.97016 23.6903H4.09653V23.1903ZM1.15327 16.8332L1.64039 16.946L1.15327 16.8332ZM2.50836 12.6215L2.99548 12.5088L2.99548 12.5088L2.50836 12.6215ZM5.36731 9.73739L5.34075 10.2367L5.34075 10.2367L5.36731 9.73739ZM7.53033 9.41661L7.32032 8.96286L7.32032 8.96286L7.53033 9.41661ZM47.2644 9.41661L47.397 8.93452L47.397 8.93452L47.2644 9.41661ZM60.509 13.1249L60.1694 13.4918L60.1694 13.4918L60.509 13.1249ZM60.0185 14.7142L59.5648 14.9242L59.5648 14.9242L60.0185 14.7142ZM63.4523 17.363L62.9652 17.4757L62.9652 17.4757L63.4523 17.363ZM7.53033 13.6249C7.80647 13.6249 8.03033 13.4011 8.03033 13.1249C8.03033 12.8488 7.80647 12.6249 7.53033 12.6249V13.6249ZM4.33409 22.7503C3.11811 22.0937 0.929136 20.0184 1.64039 16.946L0.666149 16.7204C-0.192341 20.4289 2.45872 22.8741 3.85896 23.6302L4.33409 22.7503ZM1.64039 16.946C2.02389 15.2893 2.37092 14.6971 2.58772 14.3991C2.64685 14.3178 2.69798 14.2559 2.75738 14.1813C2.81268 14.1118 2.87974 14.0258 2.93808 13.925C3.07004 13.697 3.1249 13.4521 3.1249 13.1249H2.1249C2.1249 13.3275 2.09391 13.3872 2.07257 13.4241C2.05427 13.4557 2.02781 13.4922 1.97504 13.5585C1.92637 13.6196 1.85486 13.7067 1.7791 13.8108C1.45629 14.2545 1.06751 14.9866 0.666149 16.7204L1.64039 16.946ZM3.11201 13.0121L2.99548 12.5088L2.02125 12.7343L2.13778 13.2377L3.11201 13.0121ZM5.34075 10.2367C6.15049 10.2798 7.01077 10.208 7.74034 9.87037L7.32032 8.96286C6.80119 9.20312 6.12733 9.27711 5.39387 9.23809L5.34075 10.2367ZM7.74034 9.87037C11.3996 8.17677 15.4771 2.5 27.1521 2.5L27.1521 1.5C15.1994 1.5 10.5287 7.47793 7.32032 8.96286L7.74034 9.87037ZM27.1521 2.5C34.1923 2.5 37.1292 3.79228 39.2821 5.29975C41.4493 6.81722 43.0553 8.7773 47.1317 9.8987L47.397 8.93452C43.5428 7.87425 42.2056 6.12602 39.8557 4.4806C37.4915 2.82519 34.3376 1.5 27.1521 1.5L27.1521 2.5ZM47.1317 9.8987C47.7889 10.0795 48.7511 10.2008 49.826 10.3301C50.9185 10.4616 52.1613 10.6045 53.4336 10.8245C56.0008 11.2685 58.5682 12.0097 60.1694 13.4918L60.8487 12.758C59.016 11.0616 56.1875 10.286 53.604 9.83914C52.3009 9.61377 51.0297 9.46774 49.9454 9.33728C48.8435 9.2047 47.9662 9.09111 47.397 8.93452L47.1317 9.8987ZM60.1694 13.4918C60.3013 13.6139 60.3577 13.688 60.378 13.7218C60.398 13.7553 60.3518 13.6962 60.376 13.5859C60.4003 13.4753 60.4698 13.4297 60.4622 13.4351C60.452 13.4422 60.4211 13.4594 60.3401 13.4932C60.2776 13.5192 60.1631 13.5636 60.0673 13.6091C59.9674 13.6565 59.8364 13.7273 59.7218 13.8362C59.5989 13.9529 59.4908 14.1177 59.4603 14.335C59.431 14.5432 59.4811 14.7436 59.5648 14.9242L60.4722 14.5041C60.4405 14.4356 60.4562 14.4336 60.4506 14.474C60.4436 14.5236 60.4169 14.5552 60.4104 14.5613C60.4096 14.5621 60.4147 14.5572 60.43 14.5476C60.4453 14.5381 60.4665 14.5265 60.4957 14.5127C60.563 14.4808 60.6234 14.4584 60.7247 14.4162C60.8075 14.3817 60.9292 14.3292 61.0373 14.2531C61.148 14.1753 61.3017 14.033 61.3528 13.8002C61.4038 13.5676 61.3272 13.3608 61.2364 13.2089C61.1459 13.0574 61.0112 12.9085 60.8487 12.758L60.1694 13.4918ZM59.5648 14.9242C59.7562 15.3378 60.1269 15.6014 60.4693 15.7897C60.8111 15.9776 61.2323 16.1443 61.5797 16.2974C62.3548 16.6391 62.844 16.9523 62.9652 17.4757L63.9394 17.2502C63.6927 16.1843 62.7102 15.7029 61.9831 15.3824C61.5793 15.2044 61.2417 15.0731 60.9511 14.9134C60.6612 14.754 60.526 14.6203 60.4722 14.5041L59.5648 14.9242ZM62.9652 17.4757C63.1748 18.3811 63.4148 19.8091 63.4819 20.9996C63.5157 21.6008 63.503 22.1048 63.436 22.4432C63.4019 22.6157 63.3618 22.7005 63.3408 22.7307C63.3319 22.7437 63.3724 22.6903 63.4523 22.6903V23.6903C63.7774 23.6903 64.0154 23.5127 64.1623 23.301C64.2972 23.1067 64.3716 22.8665 64.417 22.6374C64.509 22.1728 64.5154 21.5674 64.4803 20.9434C64.4093 19.6835 64.1588 18.1978 63.9394 17.2502L62.9652 17.4757ZM2.6249 13.6249H7.53033V12.6249H2.6249V13.6249ZM9.00196 22.6903H4.09653V23.6903H9.00196V22.6903ZM63.4523 22.6903H57.5V23.6903H63.4523V22.6903ZM2.99548 12.5088C2.86155 11.9302 3.08036 11.3595 3.54162 10.9178C4.00696 10.4721 4.6803 10.2015 5.34075 10.2367L5.39387 9.23809C4.44009 9.18736 3.50168 9.57141 2.84995 10.1956C2.19416 10.8236 1.79061 11.738 2.02125 12.7343L2.99548 12.5088ZM13.4638 5.83437C13.7067 6.30185 13.9034 6.75842 14.1473 7.2617C14.3815 7.74514 14.6446 8.23823 14.9834 8.67667C15.3255 9.11951 15.7487 9.51209 16.3044 9.79115C16.86 10.0702 17.5215 10.2224 18.3223 10.2224V9.2224C17.6514 9.2224 17.148 9.09579 16.7531 8.89751C16.3584 8.69928 16.0458 8.41615 15.7747 8.0653C15.5003 7.71004 15.2729 7.29147 15.0472 6.82569C14.8312 6.37976 14.5986 5.84958 14.3511 5.37321L13.4638 5.83437ZM40.3968 10.2224C42.4014 10.2224 43.4386 9.77149 43.922 9.12991C44.1652 8.80724 44.2348 8.47662 44.2401 8.22552C44.2428 8.10154 44.23 7.99684 44.2156 7.92013C44.2083 7.88158 44.2006 7.84944 44.1939 7.82472C44.1905 7.81233 44.1874 7.80173 44.1847 7.79304C44.1833 7.7887 44.1821 7.78482 44.181 7.78143C44.1804 7.77973 44.1799 7.77816 44.1794 7.7767C44.1792 7.77597 44.1789 7.77528 44.1787 7.77461C44.1786 7.77428 44.1784 7.7738 44.1784 7.77364C44.1782 7.77317 44.1781 7.77271 43.7054 7.93561C43.2326 8.09852 43.2325 8.09807 43.2323 8.09763C43.2323 8.09749 43.2321 8.09706 43.232 8.09678C43.2318 8.09622 43.2317 8.09569 43.2315 8.09518C43.2312 8.09416 43.2308 8.09323 43.2306 8.09239C43.23 8.09072 43.2296 8.0894 43.2293 8.08844C43.2287 8.08651 43.2286 8.08595 43.2288 8.08665C43.2292 8.08809 43.2308 8.09435 43.2327 8.10465C43.2367 8.12566 43.2413 8.16055 43.2404 8.20409C43.2386 8.28801 43.2168 8.40408 43.1234 8.52811C42.9336 8.77993 42.3164 9.2224 40.3968 9.2224V10.2224ZM18.3223 10.2224H27.1521V9.2224H18.3223V10.2224ZM27.1521 10.2224H40.3968V9.2224H27.1521V10.2224ZM27.6521 9.7224L27.6521 2L26.6521 2L26.6521 9.72241L27.6521 9.7224ZM19.0115 21.5C19.0115 24.2614 16.7729 26.5 14.0115 26.5V27.5C17.3252 27.5 20.0115 24.8137 20.0115 21.5H19.0115ZM14.0115 26.5C11.2501 26.5 9.01147 24.2614 9.01147 21.5H8.01147C8.01147 24.8137 10.6978 27.5 14.0115 27.5V26.5ZM9.01147 21.5C9.01147 18.7386 11.2501 16.5 14.0115 16.5V15.5C10.6978 15.5 8.01147 18.1863 8.01147 21.5H9.01147ZM14.0115 16.5C16.7729 16.5 19.0115 18.7386 19.0115 21.5H20.0115C20.0115 18.1863 17.3252 15.5 14.0115 15.5V16.5ZM57.2739 21.5C57.2739 24.2614 55.0353 26.5 52.2739 26.5V27.5C55.5876 27.5 58.2739 24.8137 58.2739 21.5H57.2739ZM52.2739 26.5C49.5124 26.5 47.2739 24.2614 47.2739 21.5H46.2739C46.2739 24.8137 48.9602 27.5 52.2739 27.5V26.5ZM47.2739 21.5C47.2739 18.7386 49.5124 16.5 52.2739 16.5V15.5C48.9602 15.5 46.2739 18.1863 46.2739 21.5H47.2739ZM52.2739 16.5C55.0353 16.5 57.2739 18.7386 57.2739 21.5H58.2739C58.2739 18.1863 55.5876 15.5 52.2739 15.5V16.5ZM19.2469 23.6903H47.0385V22.6903H19.2469V23.6903Z" fill="#A3A4A6"/>
</svg>
