<svg width="71" height="31" viewBox="0 0 71 31" fill="none" xmlns="http://www.w3.org/2000/svg">
<path d="M65.8529 23.9412H69.3892C69.8904 23.9412 70.3179 23.5709 70.3591 23.0714C70.5474 20.7839 70.3345 17.3817 67.6176 15.1176C64.7335 12.7142 62.3625 12.1064 60.5044 11.6773C60.2559 11.6199 60.0407 11.4714 59.896 11.2614C58.0136 8.53004 53.6294 3.19662 49.2857 1.0934C49.1555 1.03034 49.0133 1 48.8686 1H2C1.44772 1 1 1.44772 1 2V22.9412C1 23.4935 1.44772 23.9412 2 23.9412H9.38235M20.8529 23.9412H54.3824" stroke="#A3A4A6"/>
<path d="M38.0588 10.5882V4.64703C38.0588 4.09475 38.5066 3.64703 39.0588 3.64703H47.7877C47.8924 3.64703 47.9961 3.66244 48.0945 3.69818C50.5838 4.60245 52.8525 7.85567 54.1324 10.2065C54.4794 10.8438 54.0027 11.5882 53.277 11.5882H39.0588C38.5066 11.5882 38.0588 11.1405 38.0588 10.5882Z" stroke="#A3A4A6"/>
<path d="M6.59233 3.64703H33.0883C33.6406 3.64703 34.0883 4.09475 34.0883 4.64703V10.5882C34.0883 11.1405 33.6435 11.5882 33.0912 11.5882H15.1177C9.28033 11.5882 6.58537 7.57656 5.69423 4.79142C5.50592 4.20287 5.97439 3.64703 6.59233 3.64703Z" stroke="#A3A4A6"/>
<circle cx="60.1176" cy="24.8235" r="5.67647" stroke="#A3A4A6"/>
<circle cx="60.1175" cy="24.8235" r="3.02941" stroke="#A3A4A6"/>
<circle cx="15.1176" cy="24.8235" r="5.67647" stroke="#A3A4A6"/>
<circle cx="15.1175" cy="24.8235" r="3.02941" stroke="#A3A4A6"/>
</svg>
