<svg width="49" height="31" viewBox="0 0 49 31" fill="none" xmlns="http://www.w3.org/2000/svg">
<path fill-rule="evenodd" clip-rule="evenodd" d="M49 7.5C49 11.6421 45.6421 15 41.5 15C40.1307 15 38.8472 14.6331 37.7423 13.9922C37.8267 13.9974 37.9132 14 38.0017 14C40.4702 14 41.3705 11.9059 40.8643 9.644C40.2697 6.98776 38.0017 5 38.0017 5C38.0017 5 35.7389 6.98776 35.1391 9.644C35.0113 10.2099 34.9708 10.7653 35.0208 11.28C34.3719 10.1701 34 8.87847 34 7.5C34 3.35786 37.3579 0 41.5 0C43.0795 0 44.545 0.488262 45.7537 1.32209C44.7113 1.80933 43.0884 2.73991 42.5981 3.98558C41.6677 6.34955 44.4685 12.4024 44.1058 10.1182C43.9073 8.86786 44.7404 8.29291 45.6047 7.6965C46.3568 7.17746 47.1325 6.64218 47.2722 5.63132C47.4323 4.47371 47.3227 3.40059 47.1553 2.57366C48.3042 3.89142 49 5.61445 49 7.5Z" fill="#D7D9DF"/>
<path d="M13.143 9.54932H20.4287" stroke="#A3A4A6"/>
<path d="M16.833 22.1709H27.6663" stroke="#A3A4A6"/>
<path d="M31.8333 5H12.782C11.0683 5.19859 10.6398 5.59577 9.99716 6.39014C9.35451 7.1845 8.14061 9.5014 7.64076 10.7591C7.12664 9.8059 6.56967 9.369 5.92702 9.17041C5.07014 8.90562 3.14218 8.97182 1.85687 9.17041C1.22296 9.26836 1 9.76619 1 10.362V12.7451C1.31764 13.4812 1.23052 13.7057 4.9671 13.7347C5.26089 13.7369 5.39325 14.1322 5.17164 14.3251C4.2084 15.1635 3.57062 16.1166 3.57062 16.9155V24.4619C3.49921 25.1901 3.80422 26.5 5.34659 26.5C6.88896 26.5 37.3485 26.5 39.1534 26.5C40.9583 26.5 41 24.3059 41 24.3059C41 24.3059 41 18.5087 41 16.9696" stroke="#A3A4A6"/>
<path d="M7.63678 10.2354C7.35484 11.1636 7.34273 13.2191 10.2186 13.2191C13.0944 13.2191 27.4875 13.2191 34.3245 13.2191" stroke="#A3A4A6"/>
<path d="M6.84082 16.2031C6.97986 16.8662 7.63336 18.1923 9.13502 18.1923C10.6367 18.1923 12.1244 18.1923 12.6806 18.1923" stroke="#A3A4A6"/>
<path d="M37.6807 16.2031C37.5416 16.8662 36.8881 18.1923 35.3865 18.1923C33.8848 18.1923 32.3971 18.1923 31.8409 18.1923" stroke="#A3A4A6"/>
<path d="M5.36328 26.5H13.0565V29C13.0565 29.8284 12.3849 30.5 11.5565 30.5H6.86328C6.03485 30.5 5.36328 29.8284 5.36328 29V26.5Z" stroke="#A3A4A6"/>
<path d="M30.4775 26.5H39.1366V29C39.1366 29.8284 38.4651 30.5 37.6366 30.5H31.9775C31.1491 30.5 30.4775 29.8284 30.4775 29V26.5Z" stroke="#A3A4A6"/>
</svg>
