<svg width="70" height="30" viewBox="0 0 70 30" fill="none" xmlns="http://www.w3.org/2000/svg">
<path d="M9.31429 3.6283H16.8151C17.0913 3.6283 17.3151 3.85215 17.3151 4.1283V10.3997C17.3151 10.6759 17.0913 10.8997 16.8151 10.8997H6.2947C5.92626 10.8997 5.68437 10.5148 5.8442 10.1828L8.86378 3.91139C8.94711 3.73833 9.12221 3.6283 9.31429 3.6283Z" stroke="#A3A4A6"/>
<path d="M20.542 3.6283H31.3581C31.6342 3.6283 31.8581 3.85215 31.8581 4.1283V10.3997C31.8581 10.6759 31.6342 10.8997 31.3581 10.8997H20.542C20.2658 10.8997 20.042 10.6759 20.042 10.3997V4.1283C20.042 3.85215 20.2658 3.6283 20.542 3.6283Z" stroke="#A3A4A6"/>
<path d="M35.0393 10.3997V4.1283C35.0393 3.85215 35.2626 3.6283 35.5387 3.6283H40.4929C42.4409 3.6283 47.1913 7.49381 50.0196 10.0471C50.3557 10.3506 50.1376 10.8997 49.6848 10.8997H35.5393C35.2632 10.8997 35.0393 10.6759 35.0393 10.3997Z" stroke="#A3A4A6"/>
<circle cx="56.8536" cy="24.0792" r="5.40805" stroke="#A3A4A6"/>
<circle cx="56.8536" cy="24.0792" r="2.68126" stroke="#A3A4A6"/>
<circle cx="15.0428" cy="24.0792" r="5.40805" stroke="#A3A4A6"/>
<circle cx="15.0428" cy="24.0792" r="2.68126" stroke="#A3A4A6"/>
<path fill-rule="evenodd" clip-rule="evenodd" d="M39.7201 0.184484C40.5282 0.241025 41.169 0.314944 41.5392 0.420732C42.2444 0.622217 43.2314 1.1527 44.3308 1.82581C45.4454 2.50827 46.7261 3.36959 48.0344 4.27032C48.6677 4.70631 49.3065 5.15087 49.9369 5.5895C51.9266 6.974 53.8315 8.2995 55.2077 9.11046C55.2337 9.1258 55.2585 9.13724 55.2893 9.14784C56.1669 9.44958 57.1861 9.77114 58.2633 10.111L58.645 10.2315C59.8591 10.6149 61.1298 11.0199 62.3235 11.4395C63.5154 11.8586 64.6432 12.2966 65.5694 12.7482C66.4772 13.1907 67.2612 13.6786 67.6968 14.2231C68.0819 14.7045 68.3591 15.3719 68.5651 16.1033C68.7734 16.8429 68.92 17.689 69.0214 18.56C69.2242 20.3021 69.2511 22.1872 69.21 23.6078C69.1865 24.4175 68.5166 25.0337 67.7269 25.0337H64.5796H61.7618C61.8215 24.7247 61.8528 24.4056 61.8528 24.0792L61.8526 24.0337H64.5796H67.7269C67.996 24.0337 68.2032 23.8276 68.2104 23.5789C68.2506 22.1886 68.2236 20.3547 68.0281 18.6756C67.9304 17.8359 67.7917 17.0459 67.6026 16.3744C67.4112 15.6948 67.1788 15.1764 66.9159 14.8478C66.63 14.4904 66.0248 14.0827 65.1312 13.647C64.2561 13.2203 63.1702 12.7972 61.9918 12.3829C60.8151 11.9692 59.5585 11.5687 58.3438 11.1851L57.9614 11.0644C56.8869 10.7253 55.8547 10.3997 54.9642 10.0935C54.8721 10.0618 54.7859 10.0226 54.7 9.97199C53.2881 9.13996 51.3352 7.781 49.3368 6.39033L49.3361 6.38985C48.7126 5.95596 48.0846 5.519 47.4673 5.09399C46.1615 4.19495 44.8991 3.34637 43.8086 2.67866C42.7028 2.0016 41.8223 1.54163 41.2645 1.38226C41.0094 1.30938 40.4697 1.23938 39.6503 1.18205C38.8474 1.12586 37.8187 1.08417 36.6156 1.055C34.2101 0.996656 31.1255 0.988724 27.7921 1.01257C21.1264 1.06026 13.4809 1.23491 8.31769 1.38559C8.15387 1.39037 8.00503 1.47593 7.91458 1.62291L1.07417 12.7386C1.02568 12.8174 1 12.9081 1 13.0006V23.5337C1 23.8098 1.22386 24.0337 1.5 24.0337H10.044C10.0438 24.0488 10.0438 24.064 10.0438 24.0792C10.0438 24.4056 10.075 24.7247 10.1348 25.0337H1.5C0.671574 25.0337 0 24.3621 0 23.5337V13.0006C0 12.723 0.0770285 12.4509 0.222512 12.2145L7.06293 1.09881C7.32536 0.672352 7.7793 0.400877 8.28852 0.386016C13.4561 0.235203 21.1094 0.0603566 27.785 0.0125977C31.1223 -0.0112782 34.2189 -0.00342378 36.6398 0.0552891C37.8498 0.0846357 38.8956 0.126788 39.7201 0.184484ZM19.951 25.0337H51.9456C51.8858 24.7247 51.8546 24.4056 51.8546 24.0792L51.8548 24.0337H20.0418C20.0419 24.0488 20.042 24.064 20.042 24.0792C20.042 24.4056 20.0107 24.7247 19.951 25.0337Z" fill="#A3A4A6"/>
</svg>
