<svg width="71" height="31" viewBox="0 0 71 31" fill="none" xmlns="http://www.w3.org/2000/svg">
<path d="M65.4698 23.8056H68.98C69.4812 23.8056 69.9087 23.4353 69.9497 22.9358C70.1362 20.6619 69.9228 17.2832 67.2241 15.0342C64.3582 12.646 62.0019 12.0413 60.1552 11.6147C59.9067 11.5573 59.6915 11.4089 59.5467 11.1989C57.6749 8.48332 53.3183 3.18411 49.0016 1.09342C48.8714 1.03034 48.7292 1 48.5845 1H2C1.44772 1 1 1.44772 1 2V22.8056C1 23.3579 1.44772 23.8056 2 23.8056H9.33283M20.7356 23.8056H54.067" stroke="#A3A4A6"/>
<path d="M37.8398 10.5257V4.63141C37.8398 4.07912 38.2876 3.63141 38.8398 3.63141H47.5103C47.615 3.63141 47.7187 3.64681 47.8171 3.68258C50.2885 4.58091 52.5411 7.80801 53.8141 10.144C54.1613 10.7812 53.6846 11.5257 52.959 11.5257H38.8398C38.2876 11.5257 37.8398 11.078 37.8398 10.5257Z" stroke="#A3A4A6"/>
<path d="M6.5662 3.63141H32.8928C33.4451 3.63141 33.8928 4.07912 33.8928 4.63141V10.5257C33.8928 11.078 33.4479 11.5257 32.8956 11.5257H15.0343C9.23592 11.5257 6.55654 7.544 5.66854 4.77558C5.4798 4.18717 5.94826 3.63141 6.5662 3.63141Z" stroke="#A3A4A6"/>
<circle cx="59.7684" cy="24.6828" r="5.63998" stroke="#A3A4A6"/>
<circle cx="59.7683" cy="24.6828" r="3.00856" stroke="#A3A4A6"/>
<circle cx="15.0343" cy="24.6828" r="5.63998" stroke="#A3A4A6"/>
<circle cx="15.0342" cy="24.6828" r="3.00856" stroke="#A3A4A6"/>
</svg>
