<svg width="62" height="27" viewBox="0 0 62 27" fill="none" xmlns="http://www.w3.org/2000/svg">
<path d="M57.2059 20.8824H60.1539C60.6551 20.8824 61.0833 20.5123 61.1203 20.0125C61.2665 18.0324 61.0444 15.1595 58.7353 13.2353C56.2622 11.1744 54.2244 10.6369 52.6219 10.2655C52.3734 10.2079 52.1586 10.0598 52.0134 9.85013C50.3698 7.47591 46.6072 2.9142 42.874 1.09375C42.7439 1.03032 42.6015 1 42.4568 1H2C1.44771 1 1 1.44772 1 2V19.8824C1 20.4346 1.44772 20.8824 2 20.8824H8.26471M18.2059 20.8824H47.2647" stroke="#A3A4A6"/>
<path d="M33.1177 9.17648V4.29413C33.1177 3.74184 33.5654 3.29413 34.1177 3.29413H41.5283C41.633 3.29413 41.7369 3.30945 41.8351 3.34571C43.9217 4.11613 45.8273 6.78486 46.9487 8.79837C47.3017 9.43233 46.8262 10.1765 46.1006 10.1765H34.1177C33.5654 10.1765 33.1177 9.72877 33.1177 9.17648Z" stroke="#A3A4A6"/>
<path d="M6.00395 3.29413H28.6764C29.2287 3.29413 29.6764 3.74184 29.6764 4.29413V9.17648C29.6764 9.72877 29.2294 10.1765 28.6772 10.1765H13.2353C8.27937 10.1765 5.93696 6.84014 5.11744 4.43496C4.91814 3.85004 5.38601 3.29413 6.00395 3.29413Z" stroke="#A3A4A6"/>
<circle cx="52.2353" cy="21.6471" r="4.85294" stroke="#A3A4A6"/>
<circle cx="52.2353" cy="21.647" r="2.55882" stroke="#A3A4A6"/>
<circle cx="13.2353" cy="21.6471" r="4.85294" stroke="#A3A4A6"/>
<circle cx="13.2353" cy="21.647" r="2.55882" stroke="#A3A4A6"/>
</svg>
