<svg width="67" height="27" viewBox="0 0 67 27" fill="none" xmlns="http://www.w3.org/2000/svg">
<rect x="21.2778" y="2.68982" width="5.75931" height="5.75931" rx="0.5" stroke="#A3A4A6"/>
<path d="M29.7903 7.38587V3.75311C29.7903 3.20083 30.2374 2.75311 30.7897 2.75311H37.6761C39.0316 2.75311 41.746 4.87654 43.8075 6.72825C44.4702 7.32359 44.0387 8.38587 43.1478 8.38587H30.7903C30.238 8.38587 29.7903 7.93815 29.7903 7.38587Z" stroke="#A3A4A6"/>
<circle cx="56.0987" cy="20.6123" r="5.53036" stroke="#A3A4A6"/>
<circle cx="56.0985" cy="20.6122" r="2.94592" stroke="#A3A4A6"/>
<circle cx="13.2896" cy="20.6123" r="5.53036" stroke="#A3A4A6"/>
<circle cx="13.2897" cy="20.6122" r="2.94592" stroke="#A3A4A6"/>
<path fill-rule="evenodd" clip-rule="evenodd" d="M18.5185 1.38496C18.5784 0.606527 19.2224 0 20.0093 0H20.0487H20.0883H20.1279H20.1678H20.2077H20.2478H20.288H20.3284H20.3689H20.4095H20.4503H20.4912H20.5322H20.5733H20.6146H20.656H20.6975H20.7392H20.7809H20.8228H20.8648H20.907H20.9492H20.9916H21.0341H21.0767H21.1194H21.1623H21.2053H21.2483H21.2915H21.3348H21.3783H21.4218H21.4654H21.5092H21.553H21.597H21.6411H21.6853H21.7295H21.7739H21.8184H21.863H21.9077H21.9525H21.9974H22.0425H22.0876H22.1328H22.1781H22.2235H22.2689H22.3145H22.3602H22.406H22.4519H22.4978H22.5439H22.59H22.6362H22.6826H22.729H22.7755H22.822H22.8687H22.9155H22.9623H23.0092H23.0562H23.1033H23.1504H23.1977H23.245H23.2924H23.3399H23.3874H23.435H23.4827H23.5305H23.5784H23.6263H23.6743H23.7223H23.7704H23.8186H23.8669H23.9152H23.9636H24.0121H24.0606H24.1092H24.1579H24.2066H24.2554H24.3042H24.3531H24.4021H24.4511H24.5002H24.5493H24.5985H24.6477H24.697H24.7464H24.7958H24.8452H24.8947H24.9443H24.9939H25.0435H25.0932H25.143H25.1927H25.2426H25.2925H25.3424H25.3923H25.4423H25.4924H25.5425H25.5926H25.6428H25.693H25.7432H25.7935H25.8438H25.8941H25.9445H25.9949H26.0453H26.0958H26.1463H26.1968H26.2474H26.298H26.3486H26.3992H26.4499H26.5006H26.5513H26.602H26.6528H26.7036H26.7544H26.8052H26.856H26.9069H26.9578H27.0086H27.0595H27.1105H27.1614H27.2123H27.2633H27.3143H27.3652H27.4162H27.4672H27.5182H27.5692H27.6202H27.6713H27.7223H27.7733H27.8244H27.8754H27.9264H27.9775H28.0285H28.0795H28.1306H28.1816H28.2326H28.2837H28.3347H28.3857H28.4367H28.4877H28.5387H28.5896H28.6406H28.6916H28.7425H28.7934H28.8444H28.8953H28.9462H28.997H29.0479H29.0987H29.1496H29.2004H29.2511H29.3019H29.3526H29.4034H29.454H29.5047H29.5554H29.606H29.6566H29.7071H29.7577H29.8082H29.8586H29.9091H29.9595H30.0099H30.0602H30.1106H30.1608H30.2111H30.2613H30.3115H30.3616H30.4117H30.4617H30.5117H30.5617H30.6116H30.6615H30.7114H30.7612H30.8109H30.8606H30.9103H30.9599H31.0094H31.059H31.1084H31.1578H31.2072H31.2565H31.3057H31.3549H31.4041H31.4531H31.5022H31.5511H31.6H31.6489H31.6977H31.7464H31.7951H31.8437H31.8922H31.9407H31.9891H32.0375H32.0857H32.1339H32.1821H32.2301H32.2781H32.3261H32.3739H32.4217H32.4694H32.5171H32.5646H32.6121H32.6595H32.7069H32.7541H32.8013H32.8484H32.8954H32.9423H32.9892H33.0359H33.0826H33.1292H33.1757H33.2221H33.2685H33.3147H33.3609H33.4069H33.4529H33.4988H33.5446H33.5903H33.6359H33.6814H33.7268H33.7721H33.8173H33.8625H33.9075H33.9524H33.9972H34.042H34.0866H34.1311H34.1755H34.2198H34.264H34.3081H34.3521H34.396H34.4397H34.4834H34.5269H34.5704H34.6137H34.6569H34.7H34.743H34.7859H34.8286H34.8712H34.9138H34.9562H34.9984H35.0406H35.0826H35.1245H35.1663H35.208H35.2495H35.291H35.3323H35.3734H35.4145H35.4554H35.4961H35.5368H35.5773H35.6177H35.6579H35.6981H35.738H35.7779H35.8176H35.8572H35.8966H35.9359H35.9751H36.0141H36.053H36.0917H36.1303H36.1687H36.2071H36.2452H36.2832H36.3211H36.3588H36.3964H36.4338H36.4711H36.5082H36.5452H36.582H36.6187H36.6552H36.6915H36.7277H36.7638H36.7996H36.8354H36.8709H36.9063H36.9416H36.9767H37.0116H37.0464H37.081H37.1154H37.1497H37.1838H37.2177H37.2514H37.285H37.3185H37.3517H37.3848H37.4177H37.4504H37.483H37.5154H37.5476H37.5796H37.6115H37.6432H37.6747H37.706H37.7371H37.7681H37.7989H37.8295H37.8599H37.8901H37.9201H37.95H37.9797H38.0091H38.0384H38.0675H38.0964H38.1252H38.1537H38.182H38.2102H38.2381H38.2659H38.2934H38.3208H38.3479H38.3749H38.4017H38.4282H38.4546H38.4807H38.5067H38.5324H38.558H38.5833H38.6085H38.6334H38.6581H38.6826H38.7069H38.731H38.7549H38.7786H38.802H38.8253H38.8483H38.8711H38.8937H38.9161H38.9383H38.9602H38.982H39.0035H39.0248H39.0458H39.0667H39.0873H39.1077H39.1278H39.1478H39.1675H39.187H39.2063H39.2253H39.2441H39.2627H39.281H39.2991H39.317H39.3346H39.352H39.3692H39.3861H39.4028H39.4193H39.4355H39.4515H39.4672H39.4827H39.498H39.513H39.5278H39.5423H39.5566H39.5706H39.5844H39.5979H39.6112H39.6243H39.6371H39.6496H39.6619H39.6739H39.6857H39.6972H39.7085H39.7195H39.7302H39.7407H39.751H39.761H39.7707H39.7801H39.7893H39.7983H39.8069H39.8153H39.8235H39.8313H39.839H39.8463H39.8534H39.8602H39.8667H39.873H39.8789H39.8847H39.8901H39.8953H39.9002H39.9048H39.9091H39.9132H39.917H39.9205H39.9237H39.9266H39.9293C40.0377 0 40.128 0.0328525 40.1642 0.0464687C40.214 0.0651971 40.2635 0.0885746 40.3088 0.111732C40.4002 0.158467 40.5086 0.22208 40.6275 0.296177C40.8671 0.445492 41.1815 0.657677 41.5492 0.915114C42.2863 1.43116 43.2603 2.14488 44.3248 2.93973C46.455 4.53026 48.9615 6.45577 50.6909 7.79874C50.7716 7.86141 50.8676 7.89728 50.9723 7.90298C52.9156 8.00871 55.7935 8.24015 58.4105 8.61122C59.7183 8.79666 60.9706 9.01829 62.0123 9.27914C63.0312 9.53425 63.9234 9.84389 64.4501 10.239C64.9798 10.6362 65.3403 11.3149 65.5982 12.0646C65.8614 12.8298 66.0434 13.7464 66.1676 14.7063C66.4162 16.6279 66.4417 18.7925 66.3847 20.4206C66.3565 21.226 65.6893 21.8412 64.9005 21.8412H63.0236H63.0146V21.8411L61.2288 21.8089C61.2955 21.4863 61.3315 21.1525 61.3336 20.8107L63.0281 20.8412H64.9005C65.1678 20.8412 65.3766 20.6357 65.3853 20.3856C65.4412 18.7885 65.415 16.6829 65.1758 14.8346C65.0562 13.9095 64.8852 13.0664 64.6526 12.3899C64.4146 11.6981 64.1362 11.2535 63.8501 11.039C63.5 10.7764 62.7866 10.5039 61.7694 10.2492C60.7751 10.0002 59.5609 9.78434 58.2701 9.60131C55.6899 9.23546 52.8422 9.00619 50.918 8.9015C50.6127 8.88489 50.3211 8.77772 50.0775 8.58856C48.3508 7.24765 45.8498 5.32634 43.7265 3.74101C42.6643 2.94793 41.7001 2.24147 40.9757 1.73431C40.6126 1.48015 40.3154 1.27997 40.0986 1.14483C39.9893 1.0767 39.9083 1.03006 39.8536 1.0021L39.8495 1H39.8463H39.839H39.8313H39.8235H39.8153H39.8069H39.7983H39.7893H39.7801H39.7707H39.761H39.751H39.7407H39.7302H39.7195H39.7085H39.6972H39.6857H39.6739H39.6619H39.6496H39.6371H39.6243H39.6112H39.5979H39.5844H39.5706H39.5566H39.5423H39.5278H39.513H39.498H39.4827H39.4672H39.4515H39.4355H39.4193H39.4028H39.3861H39.3692H39.352H39.3346H39.317H39.2991H39.281H39.2627H39.2441H39.2253H39.2063H39.187H39.1675H39.1478H39.1278H39.1077H39.0873H39.0667H39.0458H39.0248H39.0035H38.982H38.9602H38.9383H38.9161H38.8937H38.8711H38.8483H38.8253H38.802H38.7786H38.7549H38.731H38.7069H38.6826H38.6581H38.6334H38.6085H38.5833H38.558H38.5324H38.5067H38.4807H38.4546H38.4282H38.4017H38.3749H38.3479H38.3208H38.2934H38.2659H38.2381H38.2102H38.182H38.1537H38.1252H38.0964H38.0675H38.0384H38.0091H37.9797H37.95H37.9201H37.8901H37.8599H37.8295H37.7989H37.7681H37.7371H37.706H37.6747H37.6432H37.6115H37.5796H37.5476H37.5154H37.483H37.4504H37.4177H37.3848H37.3517H37.3185H37.285H37.2514H37.2177H37.1838H37.1497H37.1154H37.081H37.0464H37.0116H36.9767H36.9416H36.9063H36.8709H36.8354H36.7996H36.7638H36.7277H36.6915H36.6552H36.6187H36.582H36.5452H36.5082H36.4711H36.4338H36.3964H36.3588H36.3211H36.2832H36.2452H36.2071H36.1687H36.1303H36.0917H36.053H36.0141H35.9751H35.9359H35.8966H35.8572H35.8176H35.7779H35.738H35.6981H35.6579H35.6177H35.5773H35.5368H35.4961H35.4554H35.4145H35.3734H35.3323H35.291H35.2495H35.208H35.1663H35.1245H35.0826H35.0406H34.9984H34.9562H34.9138H34.8712H34.8286H34.7859H34.743H34.7H34.6569H34.6137H34.5704H34.5269H34.4834H34.4397H34.396H34.3521H34.3081H34.264H34.2198H34.1755H34.1311H34.0866H34.042H33.9972H33.9524H33.9075H33.8625H33.8173H33.7721H33.7268H33.6814H33.6359H33.5903H33.5446H33.4988H33.4529H33.4069H33.3609H33.3147H33.2685H33.2221H33.1757H33.1292H33.0826H33.0359H32.9892H32.9423H32.8954H32.8484H32.8013H32.7541H32.7069H32.6595H32.6121H32.5646H32.5171H32.4694H32.4217H32.3739H32.3261H32.2781H32.2301H32.1821H32.1339H32.0857H32.0375H31.9891H31.9407H31.8922H31.8437H31.7951H31.7464H31.6977H31.6489H31.6H31.5511H31.5022H31.4531H31.4041H31.3549H31.3057H31.2565H31.2072H31.1578H31.1084H31.059H31.0094H30.9599H30.9103H30.8606H30.8109H30.7612H30.7114H30.6615H30.6116H30.5617H30.5117H30.4617H30.4117H30.3616H30.3115H30.2613H30.2111H30.1608H30.1106H30.0602H30.0099H29.9595H29.9091H29.8586H29.8082H29.7577H29.7071H29.6566H29.606H29.5554H29.5047H29.454H29.4034H29.3526H29.3019H29.2511H29.2004H29.1496H29.0987H29.0479H28.997H28.9462H28.8953H28.8444H28.7934H28.7425H28.6916H28.6406H28.5896H28.5387H28.4877H28.4367H28.3857H28.3347H28.2837H28.2326H28.1816H28.1306H28.0795H28.0285H27.9775H27.9264H27.8754H27.8244H27.7733H27.7223H27.6713H27.6202H27.5692H27.5182H27.4672H27.4162H27.3652H27.3143H27.2633H27.2123H27.1614H27.1105H27.0595H27.0086H26.9578H26.9069H26.856H26.8052H26.7544H26.7036H26.6528H26.602H26.5513H26.5006H26.4499H26.3992H26.3486H26.298H26.2474H26.1968H26.1463H26.0958H26.0453H25.9949H25.9445H25.8941H25.8438H25.7935H25.7432H25.693H25.6428H25.5926H25.5425H25.4924H25.4423H25.3923H25.3424H25.2925H25.2426H25.1927H25.143H25.0932H25.0435H24.9939H24.9443H24.8947H24.8452H24.7958H24.7464H24.697H24.6477H24.5985H24.5493H24.5002H24.4511H24.4021H24.3531H24.3042H24.2554H24.2066H24.1579H24.1092H24.0606H24.0121H23.9636H23.9152H23.8669H23.8186H23.7704H23.7223H23.6743H23.6263H23.5784H23.5305H23.4827H23.435H23.3874H23.3399H23.2924H23.245H23.1977H23.1504H23.1033H23.0562H23.0092H22.9623H22.9155H22.8687H22.822H22.7755H22.729H22.6826H22.6362H22.59H22.5439H22.4978H22.4519H22.406H22.3602H22.3145H22.2689H22.2235H22.1781H22.1328H22.0876H22.0425H21.9974H21.9525H21.9077H21.863H21.8184H21.7739H21.7295H21.6853H21.6411H21.597H21.553H21.5092H21.4654H21.4218H21.3783H21.3348H21.2915H21.2483H21.2053H21.1623H21.1194H21.0767H21.0341H20.9916H20.9492H20.907H20.8648H20.8228H20.7809H20.7392H20.6975H20.656H20.6146H20.5733H20.5322H20.4912H20.4503H20.4095H20.3689H20.3284H20.288H20.2478H20.2077H20.1678H20.1279H20.0883H20.0487H20.0093C19.7511 1 19.5359 1.19809 19.5156 1.46165L19.0944 6.93762C19.0343 7.71912 18.3826 8.32258 17.5988 8.32258H1.5C1.22386 8.32258 1 8.54644 1 8.82258V19.2325C1 19.5051 1.21841 19.7275 1.49099 19.7324L8.46909 19.8581C8.41442 20.1564 8.38586 20.4638 8.38586 20.7779C8.38586 20.8043 8.38606 20.8306 8.38646 20.8568L1.47298 20.7323C0.655217 20.7175 0 20.0504 0 19.2325V8.82258C0 7.99415 0.67157 7.32258 1.5 7.32258H17.5988C17.8601 7.32258 18.0773 7.12143 18.0973 6.86093L18.5185 1.38496ZM18.5182 21.0394L51.266 21.6294C51.2192 21.3526 51.1948 21.0681 51.1948 20.7779C51.1948 20.7278 51.1955 20.6778 51.197 20.628L18.4713 20.0384C18.5065 20.2798 18.5248 20.5267 18.5248 20.7779C18.5248 20.8656 18.5226 20.9528 18.5182 21.0394Z" fill="#A3A4A6"/>
</svg>
