<svg width="70" height="27" viewBox="0 0 70 27" fill="none" xmlns="http://www.w3.org/2000/svg">
<circle cx="12.7901" cy="20.393" r="2.81132" stroke="#A3A4A6"/>
<path d="M29.7456 7.60291V3.19019C29.7456 2.91404 29.5171 2.68992 29.2409 2.69279C19.8983 2.78967 15.4194 5.56976 13.9229 7.43721C13.6922 7.72512 13.9193 8.10291 14.2882 8.10291H29.2456C29.5217 8.10291 29.7456 7.87906 29.7456 7.60291Z" stroke="#A3A4A6"/>
<path d="M33.4161 7.60291V3.19019C33.4161 2.91404 33.6427 2.68973 33.9188 2.69455C41.0043 2.81816 44.9893 5.54119 46.5453 7.39815C46.793 7.69367 46.566 8.10291 46.1804 8.10291H33.9161C33.6399 8.10291 33.4161 7.87906 33.4161 7.60291Z" stroke="#A3A4A6"/>
<circle cx="58.257" cy="20.393" r="5.2948" stroke="#A3A4A6"/>
<circle cx="58.2571" cy="20.393" r="2.81132" stroke="#A3A4A6"/>
<circle cx="12.7902" cy="20.393" r="5.2948" stroke="#A3A4A6"/>
<path fill-rule="evenodd" clip-rule="evenodd" d="M34.6261 0.152589C29.1978 -0.128735 25.9145 0.00581391 23.5694 0.33729C21.6887 0.603134 20.4133 0.99698 19.1592 1.38428C18.8482 1.48033 18.5384 1.57598 18.2211 1.66918C15.6828 2.41462 10.0517 4.65331 8.01388 5.83063C7.94184 5.87225 7.86934 5.89679 7.80005 5.90552L1.31268 6.72203C0.562602 6.81644 0 7.45429 0 8.21029V19.6809C0 20.5094 0.671573 21.1809 1.5 21.1809H8.12972C8.09553 20.9757 8.07782 20.7658 8.07782 20.5522C8.07782 20.4271 8.08389 20.3033 8.09579 20.1809H1.5C1.22386 20.1809 1 19.9571 1 19.6809V8.21029C1 7.95829 1.18753 7.74567 1.43756 7.7142L7.92493 6.89769C8.13944 6.87069 8.33848 6.79799 8.51412 6.69651C10.4611 5.57168 16.0118 3.36023 18.5029 2.62866C18.8384 2.53012 19.1595 2.43104 19.4772 2.33304L19.4772 2.33304C20.7223 1.94888 21.9139 1.58124 23.7094 1.32745C25.9651 1.00861 29.1771 0.871539 34.5743 1.15125C41.6196 1.51638 48.2637 5.49212 50.8849 7.57175C51.0645 7.71429 51.2775 7.8206 51.522 7.86509C51.7328 7.90344 52.0446 7.95697 52.4365 8.02426L52.4369 8.02434C54.6854 8.41038 59.5706 9.2491 63.1503 10.2719C64.7033 10.7156 66.0612 12.2175 67.0109 14.1312C67.9542 16.0322 68.431 18.2159 68.3127 19.8477C68.3007 20.0137 68.1467 20.1809 67.8934 20.1809H63.2737C63.2825 20.2971 63.2871 20.4143 63.2876 20.5326L63.2876 20.5522L63.2876 20.57C63.2869 20.777 63.2732 20.9809 63.2474 21.1809H67.8934C68.5819 21.1809 69.2541 20.6933 69.3101 19.92C69.4439 18.0742 68.9118 15.7123 67.9066 13.6867C66.9078 11.6739 65.3778 9.86829 63.425 9.31034C59.7832 8.26982 54.8179 7.41804 52.587 7.03532L52.5866 7.03527L52.5865 7.03525L52.5859 7.03514C52.2039 6.96961 51.9021 6.91784 51.701 6.88125C51.6366 6.86953 51.5728 6.84102 51.5064 6.78837C48.7995 4.64074 41.9596 0.532652 34.6261 0.152589ZM17.8028 20.1809C17.8147 20.3033 17.8207 20.4271 17.8207 20.5522C17.8207 20.7658 17.803 20.9757 17.7688 21.1809H18.362H52.5069C52.4774 20.9751 52.4622 20.7652 52.4622 20.5522C52.4622 20.4273 52.4674 20.3035 52.4777 20.1809H18.362H17.8028ZM53.4829 20.1809H53.5587C53.5494 20.3035 53.5447 20.4273 53.5447 20.5522C53.5447 20.7652 53.5584 20.9751 53.5849 21.1809H53.5217C53.4825 20.9749 53.4622 20.7647 53.4622 20.5522C53.4622 20.4275 53.4692 20.3037 53.4829 20.1809Z" fill="#A3A4A6"/>
</svg>
