<svg width="64" height="27" viewBox="0 0 64 27" fill="none" xmlns="http://www.w3.org/2000/svg">
<path d="M58.7059 20.8824H62.1245C62.6257 20.8824 63.0506 20.5112 63.0858 20.0112C63.2514 17.6557 63.0997 13.2497 61 11.5C58.7885 9.65708 51.4459 8.9879 49.0098 8.595C48.6864 8.54285 48.43 8.31749 48.2945 8.01929C47.2367 5.69056 44.9967 2.71702 41.6994 1.22106C41.3579 1.06615 40.984 1 40.6091 1H11.5207C11.5069 1 11.4932 1.00124 11.4797 1.00369V1.00369C8.11319 1.61578 5.36835 4.05286 4.36208 7.32323L4.05896 8.30839C4.02391 8.42228 3.91869 8.5 3.79953 8.5H2C1.44772 8.5 1 8.94772 1 9.5V16.5C1 17.0523 1.44772 17.5 2 17.5H3C3.55228 17.5 4 17.9477 4 18.5V19.8824C4 20.4346 4.44772 20.8824 5 20.8824H9.76471M19.7059 20.8824H48.7647" stroke="#A3A4A6"/>
<path d="M32.5 9.5V4.5C32.5 3.94772 32.9477 3.5 33.5 3.5H39.9883C40.1063 3.5 40.2234 3.5193 40.3317 3.56608C42.2038 4.37464 43.9096 7.11345 44.9033 9.15616C45.2121 9.79096 44.7346 10.5 44.0287 10.5H33.5C32.9477 10.5 32.5 10.0523 32.5 9.5Z" stroke="#A3A4A6"/>
<circle cx="53.7353" cy="21.6471" r="4.85294" stroke="#A3A4A6"/>
<circle cx="53.7356" cy="21.647" r="2.55882" stroke="#A3A4A6"/>
<circle cx="14.7353" cy="21.6471" r="4.85294" stroke="#A3A4A6"/>
<circle cx="14.7356" cy="21.647" r="2.55882" stroke="#A3A4A6"/>
<rect x="19" y="3.5" width="11" height="7" rx="0.5" stroke="#A3A4A6"/>
<path d="M16.5 9.5V4.5C16.5 3.94772 16.0487 3.49555 15.4978 3.53538C10.3522 3.90747 8.26651 7.13487 7.67704 9.44329C7.53346 10.0056 7.99363 10.5 8.57398 10.5H15.5C16.0523 10.5 16.5 10.0523 16.5 9.5Z" stroke="#A3A4A6"/>
</svg>
