<svg width="72" height="29" viewBox="0 0 72 29" fill="none" xmlns="http://www.w3.org/2000/svg">
<circle cx="58.8975" cy="21.9799" r="6.03736" stroke="#A3A4A6"/>
<circle cx="58.8975" cy="21.9799" r="3.23563" stroke="#A3A4A6"/>
<circle cx="15.4163" cy="21.9799" r="6.03736" stroke="#A3A4A6"/>
<circle cx="15.4163" cy="21.9799" r="3.23563" stroke="#A3A4A6"/>
<path d="M10.1467 2.83478H16.2631C16.5782 2.83478 16.8147 3.1227 16.7536 3.4318L15.6583 8.96916C15.612 9.20336 15.4065 9.37214 15.1678 9.37214H6.22975C5.92951 9.37214 5.69589 9.10873 5.76251 8.81596C6.33535 6.2982 8.59732 3.9482 9.84108 2.94123C9.9275 2.87126 10.0355 2.83478 10.1467 2.83478Z" stroke="#A3A4A6"/>
<path d="M18.865 8.77008L20.0195 3.23273C20.0679 3.0009 20.2722 2.83478 20.509 2.83478H32.9226C33.1355 2.83478 33.325 2.96957 33.3949 3.17066L35.3191 8.70802C35.432 9.03291 35.1907 9.37214 34.8468 9.37214H19.3545C19.0373 9.37214 18.8003 9.0806 18.865 8.77008Z" stroke="#A3A4A6"/>
<path d="M38.1271 9.06331L35.8358 3.52595C35.6996 3.19676 35.9416 2.83478 36.2978 2.83478H40.8916C40.937 2.83478 40.9816 2.84061 41.0251 2.85342C43.5334 3.59082 46.4336 6.6172 48.022 8.59082C48.2788 8.9099 48.0472 9.37214 47.6377 9.37214H38.5891C38.3868 9.37214 38.2045 9.25024 38.1271 9.06331Z" stroke="#A3A4A6"/>
<path fill-rule="evenodd" clip-rule="evenodd" d="M6.99597 1.1682C8.00669 0.471292 9.07818 0 10.1016 0H40.7269C40.8131 0 40.9021 0.00708309 40.9939 0.024546C43.1393 0.432704 45.5198 1.84842 47.667 3.45297C49.8284 5.06813 51.8132 6.92086 53.1736 8.27174C53.2626 8.3601 53.3894 8.41546 53.5215 8.4208C66.3858 8.94094 69.6693 12.1778 70.6644 14.296C70.8585 14.7091 70.9654 15.2875 71.0262 15.9121C71.0884 16.5504 71.1068 17.2901 71.0971 18.0578C71.0777 19.594 70.9455 21.2779 70.8098 22.5581C70.729 23.3203 70.0828 23.8808 69.3294 23.8808H66.263L66.2559 23.8807L64.323 23.8531C64.4063 23.5308 64.4616 23.1974 64.4863 22.8554L66.263 22.8808H66.2667H69.3294C69.5844 22.8808 69.7899 22.6934 69.8154 22.4527C69.9491 21.1908 70.0783 19.54 70.0972 18.0452C70.1066 17.2974 70.0882 16.5974 70.031 16.0091C69.9723 15.407 69.8771 14.9718 69.7594 14.7212C69.0174 13.142 66.2656 9.9369 53.4811 9.41999C53.106 9.40482 52.7402 9.25066 52.469 8.98131C51.1252 7.64687 49.1774 5.83002 47.0684 4.25402C44.9452 2.66741 42.7175 1.37039 40.807 1.00692C40.7838 1.0025 40.7578 1 40.7269 1H10.1016C9.36995 1 8.49992 1.34588 7.56363 1.99146C6.63624 2.63091 5.692 3.5313 4.82335 4.5585C3.07434 6.62671 1.7076 9.11677 1.379 10.8653C0.766846 14.1228 1.01778 18.8813 1.2879 21.5337C1.31192 21.7696 1.51166 21.9557 1.76456 21.9593L9.41395 22.0686C9.40492 22.1936 9.40034 22.3197 9.40034 22.4469C9.40034 22.6572 9.41289 22.8647 9.43733 23.069L1.75028 22.9592C1.00571 22.9486 0.37009 22.3915 0.293045 21.635C0.0216657 18.9703 -0.244344 14.0892 0.396201 10.6806C0.769621 8.69358 2.25482 6.04715 4.05978 3.91277C4.9681 2.83867 5.97635 1.87124 6.99597 1.1682ZM21.4806 23.2411L53.4341 23.6975C53.3602 23.3733 53.3144 23.0385 53.2995 22.6956L21.5372 22.2418C21.5398 22.3098 21.5411 22.3782 21.5411 22.4469C21.5411 22.7165 21.5205 22.9816 21.4806 23.2411Z" fill="#A3A4A6"/>
</svg>
